<?xml version="1.0" encoding="utf-8"?>
<!-- Generator: Adobe Illustrator 21.0.0, SVG Export Plug-In . SVG Version: 6.00 Build 0)  -->
<svg version="1.1" id="Layer_1" xmlns="http://www.w3.org/2000/svg" xmlns:xlink="http://www.w3.org/1999/xlink" x="0px" y="0px"
	 viewBox="0 0 78.4 15.4" style="enable-background:new 0 0 78.4 15.4;" xml:space="preserve">
<style type="text/css">
	.st0{fill:#F9F9FA;}
	.st1{fill:#EAEAEA;}
	.st2{fill:#D6A348;}
	.st3{fill:#A5C139;}
</style>
<g>
	<g>
		<path class="st0" d="M28.8,10.5c-0.6-0.3-1.1-0.7-1.5-1.2c-0.1,0.2-0.3,0.5-0.6,0.8c-0.3,0.3-0.6,0.5-0.9,0.6l-0.6-0.6
			c0.5-0.2,0.8-0.5,1.2-0.8c0.3-0.4,0.5-0.8,0.5-1.2V7.7h-1.3V7H29v0.7h-1.3v0.3c0,0.4,0.1,0.8,0.5,1.1c0.3,0.3,0.7,0.6,1.1,0.7
			L28.8,10.5z M27,13c-0.2,0-0.3-0.2-0.3-0.3v-1.9h0.9v1.1c0,0.2,0.2,0.3,0.3,0.3H31V13H27z M30.1,11.3v-2c0-0.2-0.2-0.3-0.3-0.3
			h-0.9V8.3h0.9c0.2,0,0.3-0.2,0.3-0.3V6.7h0.8v4.7H30.1z"/>
		<path class="st0" d="M36,10.7c-0.2,0-0.3,0.2-0.3,0.3v2.2h-0.9V11c0-0.2-0.2-0.3-0.3-0.3h-2.3V10h6.1v0.7H36z M37.7,9.5
			c-0.9-0.2-1.6-0.5-2.1-1c-0.1-0.1-0.3-0.1-0.4,0c-0.2,0.2-0.4,0.4-0.8,0.5c-0.5,0.2-0.9,0.4-1.4,0.5l-0.5-0.7
			c0.6,0,1.1-0.2,1.5-0.4c0.4-0.2,0.7-0.5,0.9-0.8h-1.9V6.9h4.7v0.7h-1.9c0.1,0.3,0.4,0.6,0.8,0.8c0.4,0.2,0.9,0.4,1.5,0.4L37.7,9.5
			z"/>
		<path class="st0" d="M39.2,10.4V9.7h2.6V9.1h-1.4c-0.2,0-0.3-0.2-0.3-0.3V7.2c0-0.2,0.2-0.3,0.3-0.3h3.9v0.7H41v0.8h3.5v0.7h-1.8
			v0.6h2.6v0.7H39.2z M43.5,13.2V12c0-0.2-0.2-0.3-0.3-0.3H40v-0.7h4c0.2,0,0.3,0.2,0.3,0.3v1.9H43.5z"/>
		<path class="st0" d="M49.6,11.6c-0.5-0.4-0.9-0.7-1.2-1.2c-0.1-0.2-0.4-0.2-0.5,0c-0.3,0.5-0.7,0.9-1.2,1.3l-0.7-0.6
			c0.5-0.3,0.9-0.6,1.2-1.2c0.3-0.5,0.5-1,0.5-1.6V7.1h0.8v1.3c0,0.5,0.2,1,0.5,1.5c0.3,0.5,0.7,0.8,1.2,1L49.6,11.6z M50.9,13.2
			V9.7c0-0.2-0.2-0.3-0.3-0.3h-1.1V8.6h1.1c0.2,0,0.3-0.2,0.3-0.3V6.7h0.8v6.5H50.9z"/>
		<path class="st0" d="M56.1,11.3c-0.6,0.1-1.4,0.1-2.4,0.1c-0.2,0-0.3-0.2-0.3-0.3V7.6c0-0.2,0.2-0.3,0.3-0.3h2.2v0.7h-1.4
			c-0.2,0-0.3,0.2-0.3,0.3v2.4h0.4c0.5,0,1,0,1.5-0.1L56.1,11.3z M57.9,13.2V9.9h-0.6V13h-0.8V6.8h0.8v2.4h0.6V6.7h0.8v6.5H57.9z"/>
		<path class="st0" d="M63.5,10.5c-0.6-0.3-1.1-0.7-1.5-1.2c-0.1,0.2-0.3,0.5-0.6,0.8c-0.3,0.3-0.6,0.5-0.9,0.6l-0.6-0.6
			c0.5-0.2,0.8-0.5,1.2-0.8c0.3-0.4,0.5-0.8,0.5-1.2V7.7h-1.3V7h3.5v0.7h-1.3v0.3c0,0.4,0.1,0.8,0.5,1.1c0.3,0.3,0.7,0.6,1.1,0.7
			L63.5,10.5z M61.7,13c-0.2,0-0.3-0.2-0.3-0.3v-1.9h0.9v1.1c0,0.2,0.2,0.3,0.3,0.3h3.2V13H61.7z M64.8,11.3v-2
			c0-0.2-0.2-0.3-0.3-0.3h-0.9V8.3h0.9c0.2,0,0.3-0.2,0.3-0.3V6.7h0.8v4.7H64.8z"/>
	</g>
	<g>
		<path class="st1" d="M26.3,3.2c-0.2-0.1-0.4-0.3-0.5-0.4c-0.1,0.2-0.3,0.4-0.5,0.5L25,3.1c0.2-0.1,0.3-0.2,0.4-0.3
			s0.2-0.3,0.2-0.4V2.3h-0.5V2h0.5V1.7h0.4V2h0.5v0.3h-0.5v0.1c0,0.1,0.1,0.3,0.2,0.4c0.1,0.1,0.2,0.2,0.4,0.3L26.3,3.2z M27.1,4.4
			V3.7h-1.5V3.4h1.8v1H27.1z M27.1,3.3V2.7h-0.2v0.6h-0.3V1.7h0.3v0.7h0.2V1.7h0.4v1.6H27.1z"/>
		<path class="st1" d="M28,4V3.7h2.5V4H28z M29.3,3.3c-0.3,0-0.5-0.1-0.7-0.2c-0.2-0.1-0.3-0.3-0.3-0.5c0-0.2,0.1-0.4,0.3-0.5
			c0.2-0.1,0.4-0.2,0.7-0.2c0.3,0,0.5,0.1,0.7,0.2c0.2,0.1,0.3,0.3,0.3,0.5c0,0.2-0.1,0.4-0.3,0.5C29.8,3.2,29.6,3.3,29.3,3.3z
			 M29.3,2.2c-0.2,0-0.3,0-0.4,0.1s-0.2,0.2-0.2,0.3c0,0.1,0.1,0.2,0.2,0.3S29.1,3,29.3,3c0.2,0,0.3,0,0.4-0.1
			c0.1-0.1,0.2-0.2,0.2-0.3c0-0.1-0.1-0.2-0.2-0.3C29.6,2.2,29.5,2.2,29.3,2.2z"/>
		<path class="st1" d="M30.9,4V3.7H32V3.4h-0.7V2.5h1.5V2.2h-1.4V1.9h1.8v0.9h-1.5v0.3h1.5v0.3h-0.8v0.4h1.1V4H30.9z"/>
		<path class="st1" d="M34.9,3.1V2.8h1.2V2.3h0.4v0.4h1v0.3H34.9z M37.1,4.4c-0.2,0-0.3-0.1-0.5-0.2c-0.2-0.1-0.3-0.2-0.4-0.3
			C36,4,35.9,4.1,35.7,4.2c-0.2,0.1-0.4,0.1-0.5,0.2L35,4.1c0.2,0,0.4-0.1,0.6-0.1c0.2-0.1,0.3-0.2,0.3-0.3h-0.7V3.4H36V3.1h0.4v0.3
			h0.8v0.3h-0.7c0,0.1,0.2,0.2,0.3,0.3c0.2,0.1,0.4,0.1,0.6,0.2L37.1,4.4z M36,1.9c0,0.1,0,0.2,0,0.4c0,0.2-0.1,0.3-0.1,0.4
			l-0.4-0.1c0-0.1,0.1-0.2,0.1-0.3c0-0.1,0-0.2,0-0.3h-0.5V1.7H36V1.9z M37.1,1.7c0,0.3,0,0.6,0,0.9l-0.4,0c0-0.2,0-0.4,0-0.6h-0.7
			V1.7H37.1z"/>
		<path class="st1" d="M39.6,3.7c-0.2,0-0.3,0-0.5,0h-1.3V3.4h0.4l0-1h0.3l0,1h0.4l0-1h0.3l0,1c0.2,0,0.3,0,0.4,0L39.6,3.7z
			 M37.9,2.2V1.9h1.6v0.3H37.9z M39.7,4.4V1.7h0.3v2.7H39.7z"/>
		<path class="st1" d="M40.7,3.3V3h2.5v0.3H40.7z M41.1,4.3V3.5h0.4V4h1.5v0.3H41.1z M41.1,2.7V1.8h0.4v0.6h1.4v0.3H41.1z"/>
		<path class="st1" d="M46.1,3.3c-0.3-0.1-0.5-0.3-0.6-0.5c0,0.1-0.1,0.2-0.3,0.3S45,3.3,44.8,3.4l-0.3-0.3c0.2-0.1,0.4-0.2,0.5-0.4
			c0.1-0.2,0.2-0.3,0.2-0.5V2.1h-0.6V1.8h1.5v0.3h-0.5v0.1c0,0.2,0.1,0.3,0.2,0.5S46.1,3,46.3,3L46.1,3.3z M45.2,4.3V3.4h0.4V4H47
			v0.3H45.2z M46.6,3.6v-1h-0.5V2.4h0.5V1.7H47v2H46.6z"/>
		<path class="st1" d="M49,3.4v1.1h-0.4V3.4h-1.1V3.1h2.5v0.3H49z M49.8,2.9c-0.4-0.1-0.8-0.3-1-0.5c-0.1,0.1-0.2,0.2-0.4,0.3
			S48,2.8,47.8,2.9l-0.2-0.3c0.2,0,0.4-0.1,0.6-0.2c0.2-0.1,0.3-0.2,0.4-0.4h-0.8V1.8h2v0.3H49c0.1,0.1,0.2,0.2,0.3,0.3
			s0.4,0.2,0.6,0.2L49.8,2.9z"/>
	</g>
	<path class="st2" d="M3.4,11.3c-0.3,0.2-0.5-0.3-0.3-0.4c0.7-0.5,1.5-0.7,2.3-0.7c-0.5-0.2-1-0.6-1.3-1C3.9,8.9,4.3,8.6,4.5,8.9
		c0.2,0.3,0.7,0.5,1,0.7C6,9.8,6.4,10,6.8,10.1c0,0,0,0,0,0c1.3,0.2,2.6,0.6,3.8,1.2c-0.1-0.4-0.1-0.7-0.2-1C10.1,9.4,9.7,8.9,9,8.3
		C8.6,8,8.3,7.7,8,7.3C7.9,7.2,7.8,7,7.7,6.9c0,0,0,0,0,0C7.3,6.3,6.8,6.2,6.1,6.2c-0.3,0-0.3-0.5,0-0.5c0.5,0,0.8,0,1.2,0.2
		C7.1,5.5,7,5,7,4.6c0-0.3,0.5-0.3,0.5,0c0.1,1.1,0.6,2,1.2,2.7c-0.1-0.6,0-1.1,0.2-1.6C9,5.4,9.5,5.5,9.4,5.8
		C9.1,6.4,9.1,7.4,9.4,8c0.1,0,0.1,0.1,0.2,0.1c0.7,0.5,1,1.2,1.3,2c0,0,0,0,0,0c0,0,0,0,0,0c0,0,0,0.1,0,0.1c0,0,0,0,0,0.1
		c0,0.2,0.1,0.3,0.1,0.5V3.4c0-0.4-0.3-0.7-0.6-0.8L1.8,0.2C1.3,0,0.8,0.4,0.8,1v11.4c0,0.4,0.3,0.7,0.6,0.8l6.8,2
		c1.4,0.4,2.8-0.7,2.8-2.2V12C8.7,10.9,5.8,9.8,3.4,11.3z M7.7,8.6l0.1,0l0,0.1c0.1,0.5-0.2,0.9-0.7,1l-0.1,0
		c0.1-0.3,0.3-0.7,0.5-0.8c0,0,0,0-0.1,0C7.3,9.1,7.1,9.4,7,9.7l0-0.1C6.9,9.2,7.2,8.7,7.7,8.6z M9.2,3.8L9.2,3.8l0.2,0
		C9.8,4.1,9.8,4.6,9.5,5l0,0c-0.1-0.3-0.2-0.7-0.1-1c0,0-0.1,0-0.1,0c-0.1,0.3,0,0.7,0.1,1L9.3,5C8.9,4.7,8.9,4.2,9.2,3.8z M8.1,2.4
		l0.1,0l0,0.1c0.2,0.5-0.1,1-0.6,1.1l-0.1,0c0-0.3,0.2-0.7,0.4-0.9c0,0,0,0-0.1,0C7.7,2.9,7.6,3.3,7.6,3.6l0-0.1
		C7.4,3.1,7.6,2.6,8.1,2.4z M5.9,7.8l0.1-0.1l0.1,0.1c0.2,0.4,0,1-0.4,1.2L5.6,9c0-0.3,0.1-0.7,0.3-0.9c0,0,0,0-0.1,0
		C5.7,8.3,5.5,8.7,5.5,9l0-0.1C5.3,8.5,5.5,8,5.9,7.8z M5.5,3.3c0.5-0.1,0.9,0.3,1,0.7l0,0.1C6.3,3.8,6,3.6,5.7,3.5c0,0-0.1,0,0,0
		c0.3,0.1,0.6,0.3,0.8,0.6l-0.1,0c-0.5,0.1-0.9-0.3-1-0.7l0-0.1L5.5,3.3z M4.1,6.4C4.4,6,5,6,5.4,6.3l0.1,0.1c-0.3-0.1-0.7-0.1-1,0
		c0,0,0,0.1,0,0.1c0.3-0.1,0.7-0.1,1,0l0,0C5,6.9,4.5,6.9,4.1,6.5L4.1,6.4L4.1,6.4z M4.1,7L4.1,7l0.2,0c0.4,0.3,0.4,0.9,0.1,1.2l0,0
		C4.2,8,4.2,7.6,4.2,7.3c0,0-0.1,0-0.1,0c-0.1,0.3,0,0.7,0.1,1L4.2,8.3C3.9,7.9,3.8,7.4,4.1,7z M2.2,9.1c0.3-0.4,0.9-0.4,1.3,0
		l0.1,0.1C3.2,9,2.8,9,2.5,9.1c0,0,0,0.1,0,0.1c0.3-0.1,0.7-0.1,1,0l0,0c-0.3,0.4-0.9,0.4-1.3,0L2.2,9.1L2.2,9.1z M3.3,11.8
		c-0.1,0.5-0.6,0.7-1.1,0.6l-0.1,0l0-0.1c0.1-0.5,0.6-0.7,1.1-0.6l0.1,0c-0.3,0.1-0.7,0.2-0.9,0.5c0,0,0,0.1,0,0.1
		C2.6,12,3,11.8,3.3,11.8L3.3,11.8z M6.1,11.2c-0.3,0.1-0.7,0.2-0.9,0.5c0,0,0,0.1,0,0.1C5.4,11.5,5.8,11.3,6.1,11.2l0,0.1
		C5.9,11.8,5.5,12.1,5,12l-0.1,0l0-0.1C5,11.3,5.5,11.1,6.1,11.2L6.1,11.2z"/>
	<path class="st3" d="M21.2,0.2l-8.6,2.4C12.3,2.7,12,3,12,3.4v7.3c0-0.2,0.1-0.3,0.1-0.5c0,0,0,0,0-0.1c0,0,0-0.1,0-0.1
		c0,0,0,0,0,0c0,0,0,0,0,0c0.3-0.8,0.6-1.4,1.3-2c0.1,0,0.1-0.1,0.2-0.1c0.4-0.6,0.3-1.6,0.1-2.2c-0.1-0.3,0.4-0.4,0.5-0.1
		c0.2,0.5,0.2,1.1,0.2,1.6c0.7-0.7,1.1-1.6,1.2-2.7c0-0.3,0.5-0.3,0.5,0c0,0.4-0.1,0.9-0.3,1.3c0.3-0.2,0.7-0.2,1.2-0.2
		c0.3,0,0.3,0.5,0,0.5c-0.7,0-1.2,0.1-1.6,0.7c0,0,0,0,0,0c-0.1,0.1-0.2,0.3-0.3,0.4c-0.3,0.4-0.6,0.7-1,1.1
		c-0.7,0.6-1.1,1.1-1.4,1.9c-0.1,0.3-0.2,0.7-0.2,1c1.2-0.5,2.5-1,3.8-1.2c0,0,0,0,0,0c0.4-0.1,0.8-0.3,1.2-0.5
		c0.3-0.2,0.8-0.4,1-0.7c0.2-0.3,0.6,0,0.4,0.3c-0.3,0.4-0.8,0.7-1.3,1c0.8,0.1,1.6,0.3,2.3,0.7c0.3,0.2,0,0.6-0.3,0.4
		c-2.4-1.5-5.3-0.4-7.7,0.7v0.9c0,1.5,1.4,2.5,2.8,2.2l6.8-2c0.4-0.1,0.6-0.4,0.6-0.8V1C22.3,0.4,21.7,0,21.2,0.2z M13.7,5L13.7,5
		c0.1-0.2,0.1-0.6,0-0.9c0,0-0.1-0.1-0.1,0c0.1,0.3,0,0.7-0.1,1l0,0c-0.3-0.4-0.3-0.9,0.1-1.2l0.1-0.1l0.1,0.1
		C14.2,4.2,14.1,4.7,13.7,5z M15.5,3.6L15.5,3.6c-0.1-0.2-0.2-0.6-0.4-0.8c0,0-0.1,0-0.1,0c0.2,0.2,0.4,0.6,0.4,0.9l-0.1,0
		c-0.5-0.2-0.7-0.7-0.6-1.1l0-0.1l0.1,0C15.4,2.6,15.7,3.1,15.5,3.6z M16.1,9.7c-0.1-0.3-0.3-0.7-0.5-0.8c0,0-0.1,0-0.1,0
		C15.7,9.1,15.9,9.4,16.1,9.7l-0.1,0c-0.5-0.1-0.8-0.5-0.7-1l0-0.1l0.1,0C15.8,8.7,16.2,9.2,16.1,9.7L16.1,9.7z M16.3,12.4
		c-0.5,0.1-1-0.1-1.1-0.6l0-0.1c0.3,0,0.7,0.2,0.9,0.4c0,0,0,0,0-0.1c-0.2-0.2-0.6-0.4-0.9-0.5l0.1,0c0.5-0.1,1,0.1,1.1,0.6l0,0.1
		L16.3,12.4z M16.7,4.2L16.7,4.2c0.1-0.3,0.4-0.6,0.7-0.6c0,0,0,0,0,0c-0.3,0.1-0.6,0.3-0.8,0.6l0-0.1c0.1-0.5,0.5-0.8,1-0.7l0.1,0
		l0,0.1C17.6,3.9,17.2,4.2,16.7,4.2z M17.5,8.9L17.5,8.9c0-0.3-0.2-0.6-0.4-0.9c0,0-0.1,0-0.1,0c0.2,0.2,0.3,0.6,0.3,0.9l-0.1,0
		c-0.4-0.2-0.6-0.7-0.4-1.2L17,7.7l0.1,0.1C17.6,8,17.7,8.5,17.5,8.9z M17.7,6.5L17.7,6.5c0.3-0.2,0.7-0.2,0.9-0.1c0,0,0-0.1,0-0.1
		c-0.3-0.1-0.7-0.1-1,0l0.1-0.1c0.4-0.3,0.9-0.3,1.3,0L19,6.4l-0.1,0.1C18.6,6.9,18,6.9,17.7,6.5z M18.8,8.3L18.8,8.3
		c0.1-0.2,0.1-0.6,0-0.9c0,0-0.1-0.1-0.1,0c0.1,0.3,0,0.7-0.1,1l0,0c-0.3-0.4-0.3-0.9,0.1-1.2l0.1-0.1L18.9,7
		C19.2,7.4,19.2,7.9,18.8,8.3z M19.6,9.2L19.6,9.2c0.3-0.2,0.7-0.2,0.9-0.1c0,0,0-0.1,0-0.1c-0.3-0.1-0.7-0.1-1,0l0.1-0.1
		c0.4-0.3,0.9-0.3,1.3,0L21,9.2l-0.1,0.1C20.5,9.6,20,9.6,19.6,9.2z M20.8,12.5c-0.5,0.1-1-0.1-1.1-0.6l0-0.1c0.3,0,0.7,0.2,0.9,0.4
		c0,0,0,0,0-0.1c-0.2-0.2-0.6-0.4-0.9-0.5l0.1,0c0.5-0.1,1,0.1,1.1,0.6l0,0.1L20.8,12.5z"/>
</g>
</svg>
