<?xml version="1.0" encoding="utf-8"?>
<!-- Generator: Adobe Illustrator 21.0.0, SVG Export Plug-In . SVG Version: 6.00 Build 0)  -->
<svg version="1.1" id="Layer_1" xmlns="http://www.w3.org/2000/svg" xmlns:xlink="http://www.w3.org/1999/xlink" x="0px" y="0px"
	 viewBox="0 0 150 50" style="enable-background:new 0 0 150 50;" xml:space="preserve">
<style type="text/css">
	.st0{fill:none;stroke:#FFFFFF;stroke-width:3;stroke-miterlimit:10;}
	.st1{fill:#C1A57B;}
	.st2{fill:#CECECE;}
</style>
<path class="st0" d="M26.5,71.2"/>
<g>
	<path class="st1" d="M29,10.4l18.5,6.1V8.1c0-1.4-1.2-2.6-2.6-2.6H12.1c-1.4,0-2.6,1.2-2.6,2.6v8.3L28,10.4
		C28.3,10.3,28.7,10.3,29,10.4z"/>
	<rect x="24.8" y="36.8" class="st1" width="7.5" height="2.5"/>
	<rect x="37.3" y="39.8" class="st1" width="4.5" height="3.8"/>
	<rect x="24.8" y="40.8" class="st1" width="7.5" height="2.8"/>
	<rect x="15.3" y="39.8" class="st1" width="4.5" height="3.8"/>
	<path class="st1" d="M28.9,20c2.3,0.2,4.1,2.1,4.1,4.5h-9c0-2.4,1.8-4.3,4.1-4.5v-6.5L9.5,19.6v21.3c0,1.4,1.2,2.6,2.6,2.6h1.6V39
		v-8c0-0.4,0.3-0.8,0.8-0.8s0.8,0.3,0.8,0.8v7.3h5.3c0.4,0,0.8,0.3,0.8,0.8v4.5h2V40v-3.3h-2.8c-0.4,0-0.8-0.3-0.8-0.8
		s0.3-0.8,0.8-0.8H24h12.5c0.4,0,0.8,0.3,0.8,0.8s-0.3,0.8-0.8,0.8h-2.8V40v3.5h2V39c0-0.4,0.3-0.8,0.8-0.8h5.3V31
		c0-0.4,0.3-0.8,0.8-0.8s0.8,0.3,0.8,0.8v8v4.5h1.6c1.4,0,2.6-1.2,2.6-2.6V19.6l-18.6-6.1V20z"/>
</g>
<path class="st2" d="M61.5,18.6c0.4,0,0.7,0.3,0.7,0.7v7.5h0.7c0.6,0,1.3,0,1.9-0.1c0.6,0,1.3-0.1,2-0.2l0.2,1.4
	c-0.7,0.1-1.4,0.2-2.2,0.2c-0.8,0-1.7,0.1-2.6,0.1h-0.9c-0.4,0-0.7-0.3-0.7-0.7v-8.2c0-0.4,0.3-0.7,0.7-0.7H61.5z M72.4,32.4h-0.2
	c-0.4,0-0.7-0.3-0.7-0.7v-7.5c0-0.4-0.3-0.7-0.7-0.7h-0.5c-0.4,0-0.7,0.3-0.7,0.7V31c0,0.4-0.3,0.7-0.7,0.7h-0.2
	c-0.4,0-0.7-0.3-0.7-0.7V18.2c0-0.4,0.3-0.7,0.7-0.7h0.2c0.4,0,0.7,0.3,0.7,0.7v3.3c0,0.4,0.3,0.7,0.7,0.7h0.5
	c0.4,0,0.7-0.3,0.7-0.7v-3.6c0-0.4,0.3-0.7,0.7-0.7h0.2c0.4,0,0.7,0.3,0.7,0.7v13.8C73,32.1,72.7,32.4,72.4,32.4z"/>
<path class="st1" d="M83.5,21.8c-0.1,0.2-0.2,0.4-0.5,0.7c-0.2,0.3-0.5,0.6-0.8,0.8c-0.4,0.3-0.9,0.7-1.4,1.1
	c-0.3,0.2-0.7,0.5-1,0.7c-0.4,0.2-0.8,0.2-1.1-0.2L78.1,24c0.6-0.4,1.2-0.8,1.8-1.2c0.6-0.4,1-0.8,1.4-1.1c0.3-0.2,0.5-0.5,0.6-0.7
	c0.2-0.2,0.3-0.4,0.4-0.7c0.1-0.2,0.1-0.5,0.2-0.8c0-0.3,0-0.6,0-0.9v-0.2h-3.8v-1.6h9.4v1.6h-3.6v0.1c0,0.3,0,0.6,0,0.8
	c0,0.2,0,0.5,0.1,0.7c0.1,0.2,0.2,0.4,0.3,0.6c0.1,0.2,0.3,0.4,0.6,0.6c0.5,0.4,1,0.8,1.5,1.2c0.6,0.4,1.1,0.8,1.7,1.1l-1.1,1.4
	c-0.5-0.3-1-0.7-1.5-1c-0.5-0.4-1-0.7-1.4-1c-0.3-0.2-0.5-0.4-0.7-0.6C83.7,22.1,83.6,21.9,83.5,21.8L83.5,21.8z M92.6,26.7V33
	c0,0.5-0.4,0.8-0.8,0.8h-9.6c-0.5,0-0.8-0.4-0.8-0.8v-6.3c0-0.5,0.4-0.8,0.8-0.8h0.3c0.5,0,0.8,0.4,0.8,0.8v0.6
	c0,0.5,0.4,0.8,0.8,0.8h5.8c0.5,0,0.8-0.4,0.8-0.8v-0.6c0-0.5,0.4-0.8,0.8-0.8h0.3C92.2,25.9,92.6,26.2,92.6,26.7z M90.6,31.4v-0.7
	c0-0.5-0.4-0.8-0.8-0.8H84c-0.5,0-0.8,0.4-0.8,0.8v0.7c0,0.5,0.4,0.8,0.8,0.8h5.8C90.3,32.2,90.6,31.8,90.6,31.4z M90.6,24.2v-7.6
	c0-0.5,0.4-0.8,0.8-0.8h0.3c0.5,0,0.8,0.4,0.8,0.8v7.6c0,0.5-0.4,0.8-0.8,0.8h-0.3C91,25,90.6,24.7,90.6,24.2z"/>
<g>
	<path class="st2" d="M101.6,31.7v-4.8c0-0.4-0.3-0.7-0.7-0.7h-5.5v-1.4h4.2c0.1-0.4,0.2-0.8,0.3-1.3c0.1-0.4,0.2-0.9,0.2-1.3
		c0.1-0.4,0.1-0.8,0.1-1.1c0-0.4,0-0.7,0-0.9v-0.6h-3.5v-1.4h5.1v1.1c0,0.9,0,1.9-0.1,2.8c-0.1,0.6-0.2,1.2-0.3,1.8
		c-0.1,0.4,0.2,0.8,0.7,0.8h2.7c0.3,0,0.6-0.2,0.7-0.5c0.2-0.7,0.3-1.4,0.3-2c0.1-0.7,0.1-1.4,0.1-2v-0.6h-3.3v-1.4h4.9v1.2
		c0,0.8,0,1.7-0.1,2.6c0,0.7-0.1,1.3-0.2,2c-0.1,0.4,0.2,0.8,0.7,0.8h1.6v1.4h-5.5c-0.4,0-0.7,0.3-0.7,0.7v4.8
		c0,0.4-0.3,0.7-0.7,0.7h-0.3C101.9,32.4,101.6,32.1,101.6,31.7z"/>
	<path class="st2" d="M111.5,27.7v-8.4c0-0.4,0.3-0.7,0.7-0.7h5.7c0.4,0,0.7,0.3,0.7,0.7v8.4c0,0.4-0.3,0.7-0.7,0.7h-5.7
		C111.8,28.4,111.5,28.1,111.5,27.7z M113.8,27h2.5c0.4,0,0.7-0.3,0.7-0.7v-5.7c0-0.4-0.3-0.7-0.7-0.7h-2.5c-0.4,0-0.7,0.3-0.7,0.7
		v5.7C113.1,26.7,113.4,27,113.8,27z M121.4,31.7V17.9c0-0.4,0.3-0.7,0.7-0.7h0.2c0.4,0,0.7,0.3,0.7,0.7v13.8c0,0.4-0.3,0.7-0.7,0.7
		h-0.2C121.7,32.4,121.4,32.1,121.4,31.7z"/>
	<path class="st2" d="M126.1,27.8c0.9-0.5,1.6-1,2.2-1.4c0.6-0.4,1.1-0.8,1.5-1.1c0.4-0.3,0.7-0.6,1-0.9c0.2-0.3,0.4-0.6,0.5-0.9
		c0.1-0.3,0.2-0.6,0.2-0.9c0-0.3,0-0.7,0-1.1V20h-5.2v-1.4h6.1c0.4,0,0.7,0.3,0.7,0.7v2.2c0,0.5,0,0.9,0,1.3c0,0.4-0.1,0.8-0.2,1.1
		c-0.1,0.4-0.3,0.7-0.6,1.1c-0.3,0.3-0.6,0.7-1.1,1.1c-0.5,0.4-1,0.8-1.7,1.3c-0.6,0.4-1.2,0.8-2,1.3c-0.3,0.2-0.7,0.1-0.9-0.2
		L126.1,27.8z M136.4,31.7V17.9c0-0.4,0.3-0.7,0.7-0.7h0.2c0.4,0,0.7,0.3,0.7,0.7v13.8c0,0.4-0.3,0.7-0.7,0.7h-0.2
		C136.7,32.4,136.4,32.1,136.4,31.7z"/>
</g>
</svg>
